<svg id="svg" version="1.1" xmlns="http://www.w3.org/2000/svg" xmlns:xlink="http://www.w3.org/1999/xlink" width="400" height="638.9873417721519" viewBox="0, 0, 400,638.9873417721519"><g id="svgg"><path id="path0" d="M174.598 77.105 C 103.342 126.985,126.250 243.659,235.666 388.142 L 243.174 398.056 246.397 396.125 C 248.170 395.064,252.924 392.259,256.962 389.893 C 265.649 384.804,265.369 385.907,259.764 378.867 C 163.432 257.872,129.696 159.632,167.573 110.409 C 177.325 97.734,179.810 97.168,186.810 106.022 C 215.322 142.093,213.107 182.722,180.782 216.555 L 173.213 224.478 175.902 231.255 L 178.591 238.031 182.207 234.626 C 184.196 232.753,187.227 229.892,188.944 228.269 C 233.978 185.670,233.854 125.673,188.635 78.734 C 181.942 71.786,182.160 71.812,174.598 77.105 M222.460 210.886 C 208.440 248.312,216.919 295.808,244.560 334.684 C 254.968 349.320,263.755 359.886,275.036 371.328 C 288.270 384.752,289.026 385.823,285.263 385.823 C 284.166 385.823,272.280 391.281,258.850 397.952 C 211.527 421.456,187.597 423.272,174.729 404.335 L 172.367 400.860 170.083 404.924 C 159.647 423.493,112.650 422.345,93.542 403.053 C 62.843 372.059,84.430 311.871,144.407 261.229 L 148.560 257.722 146.056 250.933 L 143.552 244.145 137.852 247.775 C 87.838 279.622,55.889 330.719,59.132 373.675 C 63.581 432.607,103.671 459.066,161.050 440.940 L 169.419 438.296 175.775 440.383 C 200.090 448.365,227.704 444.615,261.494 428.744 C 294.271 413.349,315.805 407.304,334.357 408.289 L 340.360 408.608 346.847 393.933 C 350.415 385.862,353.011 378.955,352.616 378.584 C 350.832 376.908,342.792 375.585,331.139 375.049 C 318.786 374.482,318.347 374.381,312.911 370.868 C 268.062 341.880,238.416 297.316,228.463 243.926 C 226.651 234.210,224.659 210.181,225.485 208.026 C 225.790 207.232,225.597 206.582,225.056 206.582 C 224.515 206.582,223.347 208.519,222.460 210.886 M287.224 282.785 C 280.057 292.224,273.123 309.609,275.421 312.379 C 277.184 314.502,293.063 325.063,294.494 325.063 C 297.547 325.063,307.513 307.535,308.483 300.459 C 309.273 294.696,302.834 285.793,294.262 280.795 C 291.027 278.910,289.931 279.220,287.224 282.785 M275.653 430.321 C 260.333 437.562,261.231 436.404,266.009 442.759 C 268.218 445.697,271.624 450.380,273.577 453.165 C 275.531 455.949,281.326 464.032,286.455 471.126 C 297.077 485.815,296.916 483.824,288.412 495.395 C 261.629 531.837,181.060 553.964,143.291 535.250 C 119.774 523.597,106.149 485.713,113.953 453.671 C 115.382 447.806,112.386 454.712,110.182 462.366 C 102.856 487.801,109.565 523.999,125.505 545.040 C 161.213 592.176,253.818 583.632,289.886 529.873 C 312.804 495.715,314.533 462.911,295.061 431.646 C 289.627 422.920,291.099 423.021,275.653 430.321 M206.375 465.063 C 205.491 465.759,202.382 470.203,199.467 474.937 C 196.551 479.671,194.048 483.684,193.903 483.855 C 193.759 484.025,191.204 481.589,188.227 478.441 C 177.173 466.753,175.668 467.360,165.346 487.671 C 158.736 500.679,158.695 500.322,167.615 507.680 C 178.089 516.319,179.688 515.931,187.905 502.746 L 192.622 495.178 198.649 500.500 C 209.526 510.107,209.977 510.072,217.725 499.039 C 227.512 485.102,226.339 476.129,213.515 466.839 C 208.741 463.381,208.566 463.337,206.375 465.063 " stroke="none" fill="#000000" fill-rule="evenodd"></path></g></svg>